<svg width="340" height="311" viewBox="0 0 340 311" fill="none" xmlns="http://www.w3.org/2000/svg">
<path d="M107.667 179.237C108.196 179.72 97.1272 203.528 90.6952 210.927C84.2632 218.327 76.3509 221.981 73.0241 219.089C69.6973 216.197 72.2144 207.854 78.6464 200.455C85.0784 193.056 107.138 178.754 107.667 179.237Z" fill="#42A0F0"/>
<path d="M79.7919 205.425C80.4381 206.459 82.6751 206.227 84.7884 204.906C86.9016 203.586 88.0909 201.677 87.4447 200.643C86.7985 199.609 84.5615 199.841 82.4482 201.162C80.335 202.482 79.1457 204.391 79.7919 205.425Z" fill="white"/>
<path d="M175.667 179.237C176.196 179.72 165.127 203.528 158.695 210.927C152.263 218.327 144.351 221.981 141.024 219.089C137.697 216.197 140.214 207.854 146.646 200.455C153.078 193.056 175.138 178.754 175.667 179.237Z" fill="#42A0F0"/>
<path d="M147.792 205.425C148.438 206.459 150.675 206.227 152.788 204.906C154.902 203.586 156.091 201.677 155.445 200.643C154.798 199.609 152.561 199.841 150.448 201.162C148.335 202.482 147.146 204.391 147.792 205.425Z" fill="white"/>
<path d="M243.667 179.237C244.196 179.72 233.127 203.528 226.695 210.927C220.263 218.327 212.351 221.981 209.024 219.089C205.697 216.197 208.214 207.854 214.646 200.455C221.078 193.056 243.138 178.754 243.667 179.237Z" fill="#42A0F0"/>
<path d="M215.792 205.425C216.438 206.459 218.675 206.227 220.788 204.906C222.902 203.586 224.091 201.677 223.445 200.643C222.798 199.609 220.561 199.841 218.448 201.162C216.335 202.482 215.146 204.391 215.792 205.425Z" fill="white"/>
<path d="M183.667 229.237C184.196 229.72 173.127 253.528 166.695 260.927C160.263 268.327 152.351 271.981 149.024 269.089C145.697 266.197 148.214 257.854 154.646 250.455C161.078 243.056 183.138 228.754 183.667 229.237Z" fill="#42A0F0"/>
<path d="M155.792 255.425C156.438 256.459 158.675 256.227 160.788 254.906C162.902 253.586 164.091 251.677 163.445 250.643C162.798 249.609 160.561 249.841 158.448 251.162C156.335 252.482 155.146 254.391 155.792 255.425Z" fill="white"/>
<path d="M266.667 229.237C267.196 229.72 256.127 253.528 249.695 260.927C243.263 268.327 235.351 271.981 232.024 269.089C228.697 266.197 231.214 257.854 237.646 250.455C244.078 243.056 266.138 228.754 266.667 229.237Z" fill="#42A0F0"/>
<path d="M238.792 255.425C239.438 256.459 241.675 256.227 243.788 254.906C245.902 253.586 247.091 251.677 246.445 250.643C245.798 249.609 243.561 249.841 241.448 251.162C239.335 252.482 238.146 254.391 238.792 255.425Z" fill="white"/>
<path d="M206.667 265.237C207.196 265.72 196.127 289.528 189.695 296.927C183.263 304.327 175.351 307.981 172.024 305.089C168.697 302.197 171.214 293.854 177.646 286.455C184.078 279.056 206.138 264.754 206.667 265.237Z" fill="#42A0F0"/>
<path d="M178.792 291.425C179.438 292.459 181.675 292.227 183.788 290.906C185.902 289.586 187.091 287.677 186.445 286.643C185.798 285.609 183.561 285.841 181.448 287.162C179.335 288.482 178.146 290.391 178.792 291.425Z" fill="white"/>
<path d="M130.667 265.237C131.196 265.72 120.127 289.528 113.695 296.927C107.263 304.327 99.3509 307.981 96.0241 305.089C92.6973 302.197 95.2144 293.854 101.646 286.455C108.078 279.056 130.138 264.754 130.667 265.237Z" fill="#42A0F0"/>
<path d="M102.792 291.425C103.438 292.459 105.675 292.227 107.788 290.906C109.902 289.586 111.091 287.677 110.445 286.643C109.798 285.609 107.562 285.841 105.448 287.162C103.335 288.482 102.146 290.391 102.792 291.425Z" fill="white"/>
<path d="M107.667 229.237C108.196 229.72 97.1272 253.528 90.6952 260.927C84.2632 268.327 76.3509 271.981 73.0241 269.089C69.6973 266.197 72.2144 257.854 78.6464 250.455C85.0784 243.056 107.138 228.754 107.667 229.237Z" fill="#42A0F0"/>
<path d="M79.7919 255.425C80.4381 256.459 82.6751 256.227 84.7884 254.906C86.9016 253.586 88.0909 251.677 87.4447 250.643C86.7985 249.609 84.5615 249.841 82.4482 251.162C80.335 252.482 79.1457 254.391 79.7919 255.425Z" fill="white"/>
<g filter="url(#filter0_df_137_216)">
<path d="M219.562 209.765C217.629 209.92 215.676 209.999 213.705 210H76.1812C66.7149 210.035 57.3348 208.201 48.579 204.603C39.8232 201.005 31.8639 195.714 25.1577 189.032C18.4516 182.351 13.1305 174.412 9.49974 165.669C5.86898 156.927 4 147.554 4 138.087C4 128.621 5.86898 119.248 9.49974 110.506C13.1305 101.763 18.4516 93.8238 25.1577 87.1426C31.8639 80.4614 39.8232 75.17 48.579 71.5718C57.3348 67.9737 66.7149 66.1397 76.1812 66.175H127.457C144.081 29.6 182.368 4 226.941 4C286.768 4 335.268 50.115 335.268 107C335.268 163.885 286.768 210 226.941 210C224.461 210 222.001 209.922 219.562 209.765Z" fill="url(#paint0_linear_137_216)"/>
<path d="M226.941 209C234.227 209 241.508 208.302 248.582 206.926C255.475 205.585 262.255 203.584 268.734 200.978C275.094 198.42 281.229 195.254 286.967 191.568C292.65 187.917 297.994 183.725 302.851 179.107C307.706 174.49 312.114 169.411 315.953 164.009C319.827 158.557 323.154 152.728 325.842 146.686C328.579 140.532 330.681 134.093 332.09 127.547C333.535 120.831 334.268 113.917 334.268 107C334.268 100.082 333.535 93.1687 332.09 86.4522C330.681 79.9062 328.579 73.4673 325.842 67.3142C323.154 61.2716 319.827 55.4433 315.953 49.991C312.114 44.5893 307.706 39.5095 302.851 34.8928C297.994 30.2752 292.65 26.0829 286.967 22.4323C281.229 18.7461 275.094 15.5801 268.734 13.0221C262.255 10.4165 255.475 8.41537 248.582 7.07421C241.508 5.69788 234.227 5 226.941 5C205.57 5 184.931 10.9523 167.255 22.2135C158.734 27.6418 151.078 34.1939 144.498 41.6878C137.876 49.2291 132.449 57.6069 128.367 66.5885L128.1 67.1747H127.457H76.1809C66.6073 67.1747 57.3206 69.0495 48.5788 72.747C44.3772 74.5242 40.3246 76.7238 36.5337 79.2849C32.7785 81.8219 29.2473 84.7354 26.0381 87.9446C22.8289 91.1538 19.9154 94.685 17.3784 98.4402C14.8173 102.231 12.6176 106.284 10.8405 110.485C7.14298 119.227 5.26819 128.514 5.26819 138.087C5.26819 147.661 7.14298 156.948 10.8405 165.689C12.6176 169.891 14.8173 173.944 17.3784 177.735C19.9154 181.49 22.8289 185.021 26.0381 188.23C29.2473 191.439 32.7785 194.353 36.5337 196.89C40.3246 199.451 44.3772 201.651 48.5788 203.428C57.3206 207.125 66.6073 209 76.1809 209H213.705C215.628 209 217.572 208.922 219.482 208.768L219.554 208.762L219.626 208.767C222.046 208.922 224.507 209 226.941 209ZM226.941 210C224.461 210 222 209.921 219.563 209.765C217.632 209.92 215.676 210 213.705 210H76.1809C36.4648 210 4.26819 177.803 4.26819 138.087C4.26819 98.3713 36.4648 66.1747 76.1809 66.1747H127.457C144.081 29.5954 182.366 4 226.941 4C286.768 4 335.268 50.1151 335.268 107C335.268 163.885 286.768 210 226.941 210Z" fill="white" fill-opacity="0.5"/>
</g>
<defs>
<filter id="filter0_df_137_216" x="0" y="0" width="339.268" height="218.001" filterUnits="userSpaceOnUse" color-interpolation-filters="sRGB">
<feFlood flood-opacity="0" result="BackgroundImageFix"/>
<feColorMatrix in="SourceAlpha" type="matrix" values="0 0 0 0 0 0 0 0 0 0 0 0 0 0 0 0 0 0 127 0" result="hardAlpha"/>
<feOffset dy="4"/>
<feGaussianBlur stdDeviation="2"/>
<feColorMatrix type="matrix" values="0 0 0 0 0 0 0 0 0 0 0 0 0 0 0 0 0 0 0.25 0"/>
<feBlend mode="normal" in2="BackgroundImageFix" result="effect1_dropShadow_137_216"/>
<feBlend mode="normal" in="SourceGraphic" in2="effect1_dropShadow_137_216" result="shape"/>
<feGaussianBlur stdDeviation="2" result="effect2_foregroundBlur_137_216"/>
</filter>
<linearGradient id="paint0_linear_137_216" x1="138.164" y1="29.9561" x2="204.206" y2="221.168" gradientUnits="userSpaceOnUse">
<stop stop-color="white" stop-opacity="0.596"/>
<stop offset="1" stop-color="#F7F7F7" stop-opacity="0.204"/>
</linearGradient>
</defs>
</svg>
