<svg width="392" height="316" viewBox="0 0 392 316" fill="none" xmlns="http://www.w3.org/2000/svg">
<path d="M121.151 210.951C114.86 210.952 108.584 210.315 102.421 209.051C90.5263 206.601 79.233 201.825 69.19 194.996C55.2765 185.566 44.1601 172.561 37.0092 157.35C29.8583 142.139 26.937 125.282 28.5521 108.551C30.1673 91.8205 36.2593 75.8339 46.188 62.2713C56.1167 48.7087 69.5154 38.0711 84.976 31.4762C90.5963 29.0892 96.4401 27.2669 102.421 26.0362C112.154 24.0444 122.142 23.616 132.009 24.7672C129.908 29.3622 128.301 34.1671 127.215 39.1012C126.098 44.1922 125.536 49.3892 125.537 54.6012C125.514 68.9083 129.785 82.8929 137.799 94.7452C142.965 102.39 149.548 108.973 157.192 114.139C161.035 116.735 165.121 118.952 169.392 120.759C178.234 124.501 187.739 126.42 197.34 126.401C202.895 126.405 208.431 125.767 213.84 124.501C212.565 142.073 206.338 158.924 195.879 173.101C192.496 177.688 188.703 181.958 184.546 185.857C167.388 202.001 144.71 210.978 121.151 210.951Z" fill="#713FFD"/>
<g filter="url(#filter0_f_137_259)">
<path d="M104.798 104.695C125.66 85.911 132.154 59.1135 119.303 44.8412C106.453 30.569 79.1231 34.2268 58.2611 53.011C37.399 71.7953 30.9046 98.5929 43.7553 112.865C56.6061 127.137 83.9357 123.48 104.798 104.695Z" fill="#A586FC"/>
</g>
<path d="M75.987 0L79.087 7.665L87.487 10.5L79.087 13.335L75.987 21L72.887 13.335L64.487 10.5L72.887 7.665L75.987 0Z" fill="url(#paint0_linear_137_259)"/>
<g filter="url(#filter1_f_137_259)">
<path d="M214.987 179L217.552 185.2L224.487 187.5L217.552 189.8L214.987 196L212.422 189.8L205.487 187.5L212.422 185.2L214.987 179Z" fill="url(#paint1_linear_137_259)"/>
</g>
<path d="M173.496 23.8661L177.806 29.5134L185.487 29.9701L179.065 34.2081L178.158 41.2541L173.848 35.6067L166.167 35.1501L172.589 30.912L173.496 23.8661Z" fill="url(#paint2_linear_137_259)"/>
<path d="M19.7495 165.063L24.3953 169.439L31.627 168.717L26.0844 173.418L26.0055 179.799L21.3597 175.424L14.128 176.146L19.6706 171.445L19.7495 165.063Z" fill="url(#paint3_linear_137_259)"/>
<path d="M169.432 86.4751L164.323 87.5124L161.299 92.8079L160.903 86.7228L156.766 83.5508L161.875 82.5135L164.899 77.218L165.295 83.3031L169.432 86.4751Z" fill="url(#paint4_linear_137_259)"/>
<g filter="url(#filter2_d_137_259)">
<g filter="url(#filter3_d_137_259)">
<path d="M235.781 283.765C233.848 283.92 231.895 283.999 229.924 284H92.4C82.9337 284.035 73.5537 282.201 64.7978 278.603C56.042 275.005 48.0827 269.714 41.3765 263.032C34.6704 256.351 29.3493 248.412 25.7185 239.669C22.0878 230.927 20.2188 221.554 20.2188 212.087C20.2188 202.621 22.0878 193.248 25.7185 184.506C29.3493 175.763 34.6704 167.824 41.3765 161.143C48.0827 154.461 56.042 149.17 64.7978 145.572C73.5537 141.974 82.9337 140.14 92.4 140.175H143.676C160.3 103.6 198.587 78 243.16 78C302.987 78 351.487 124.115 351.487 181C351.487 237.885 302.987 284 243.16 284C240.68 284 238.22 283.922 235.781 283.765Z" fill="url(#paint5_linear_137_259)"/>
<path d="M243.16 283C250.445 283 257.726 282.302 264.8 280.926C271.693 279.585 278.474 277.584 284.952 274.978C291.313 272.42 297.448 269.254 303.186 265.568C308.869 261.917 314.213 257.725 319.07 253.107C323.925 248.49 328.333 243.411 332.171 238.009C336.045 232.557 339.373 226.728 342.061 220.686C344.798 214.532 346.9 208.093 348.309 201.547C349.754 194.831 350.487 187.917 350.487 181C350.487 174.082 349.754 167.169 348.309 160.452C346.9 153.906 344.798 147.467 342.061 141.314C339.373 135.272 336.045 129.443 332.171 123.991C328.333 118.589 323.925 113.51 319.07 108.893C314.213 104.275 308.869 100.083 303.186 96.4323C297.448 92.7461 291.313 89.5801 284.952 87.0221C278.474 84.4165 271.693 82.4154 264.8 81.0742C257.726 79.6979 250.445 79 243.16 79C221.789 79 201.15 84.9523 183.473 96.2135C174.953 101.642 167.296 108.194 160.716 115.688C154.095 123.229 148.668 131.607 144.586 140.588L144.319 141.175H143.675H92.3997C82.8261 141.175 73.5395 143.049 64.7976 146.747C60.596 148.524 56.5434 150.724 52.7525 153.285C48.9973 155.822 45.4661 158.735 42.2569 161.945C39.0477 165.154 36.1342 168.685 33.5972 172.44C31.0361 176.231 28.8365 180.284 27.0593 184.485C23.3618 193.227 21.487 202.514 21.487 212.087C21.487 221.661 23.3618 230.948 27.0593 239.689C28.8365 243.891 31.0361 247.944 33.5972 251.735C36.1342 255.49 39.0477 259.021 42.2569 262.23C45.4661 265.439 48.9973 268.353 52.7525 270.89C56.5434 273.451 60.596 275.651 64.7976 277.428C73.5395 281.125 82.8261 283 92.3997 283H229.924C231.847 283 233.791 282.922 235.701 282.768L235.773 282.762L235.845 282.767C238.265 282.922 240.725 283 243.16 283ZM243.16 284C240.68 284 238.219 283.921 235.781 283.765C233.851 283.92 231.895 284 229.924 284H92.3997C52.6836 284 20.487 251.803 20.487 212.087C20.487 172.371 52.6836 140.175 92.3997 140.175H143.675C160.3 103.595 198.585 78 243.16 78C302.987 78 351.487 124.115 351.487 181C351.487 237.885 302.987 284 243.16 284Z" fill="white" fill-opacity="0.5"/>
</g>
</g>
<defs>
<filter id="filter0_f_137_259" x="17.1577" y="16.1353" width="128.743" height="125.436" filterUnits="userSpaceOnUse" color-interpolation-filters="sRGB">
<feFlood flood-opacity="0" result="BackgroundImageFix"/>
<feBlend mode="normal" in="SourceGraphic" in2="BackgroundImageFix" result="shape"/>
<feGaussianBlur stdDeviation="10" result="effect1_foregroundBlur_137_259"/>
</filter>
<filter id="filter1_f_137_259" x="203.487" y="177" width="23" height="21" filterUnits="userSpaceOnUse" color-interpolation-filters="sRGB">
<feFlood flood-opacity="0" result="BackgroundImageFix"/>
<feBlend mode="normal" in="SourceGraphic" in2="BackgroundImageFix" result="shape"/>
<feGaussianBlur stdDeviation="1" result="effect1_foregroundBlur_137_259"/>
</filter>
<filter id="filter2_d_137_259" x="16.2188" y="78" width="339.268" height="214" filterUnits="userSpaceOnUse" color-interpolation-filters="sRGB">
<feFlood flood-opacity="0" result="BackgroundImageFix"/>
<feColorMatrix in="SourceAlpha" type="matrix" values="0 0 0 0 0 0 0 0 0 0 0 0 0 0 0 0 0 0 127 0" result="hardAlpha"/>
<feOffset dy="4"/>
<feGaussianBlur stdDeviation="2"/>
<feColorMatrix type="matrix" values="0 0 0 0 0 0 0 0 0 0 0 0 0 0 0 0 0 0 0.25 0"/>
<feBlend mode="normal" in2="BackgroundImageFix" result="effect1_dropShadow_137_259"/>
<feBlend mode="normal" in="SourceGraphic" in2="effect1_dropShadow_137_259" result="shape"/>
</filter>
<filter id="filter3_d_137_259" x="0.218811" y="50" width="391.268" height="266" filterUnits="userSpaceOnUse" color-interpolation-filters="sRGB">
<feFlood flood-opacity="0" result="BackgroundImageFix"/>
<feColorMatrix in="SourceAlpha" type="matrix" values="0 0 0 0 0 0 0 0 0 0 0 0 0 0 0 0 0 0 127 0" result="hardAlpha"/>
<feOffset dx="10" dy="2"/>
<feGaussianBlur stdDeviation="15"/>
<feColorMatrix type="matrix" values="0 0 0 0 0.501961 0 0 0 0 0.501961 0 0 0 0 0.501961 0 0 0 0.302 0"/>
<feBlend mode="normal" in2="BackgroundImageFix" result="effect1_dropShadow_137_259"/>
<feBlend mode="normal" in="SourceGraphic" in2="effect1_dropShadow_137_259" result="shape"/>
</filter>
<linearGradient id="paint0_linear_137_259" x1="75.987" y1="0" x2="75.987" y2="21" gradientUnits="userSpaceOnUse">
<stop stop-color="#6B38FC"/>
<stop offset="1" stop-color="#9F7EFD"/>
</linearGradient>
<linearGradient id="paint1_linear_137_259" x1="214.987" y1="179" x2="214.987" y2="196" gradientUnits="userSpaceOnUse">
<stop stop-color="#6B38FC"/>
<stop offset="1" stop-color="#9F7EFD"/>
</linearGradient>
<linearGradient id="paint2_linear_137_259" x1="173.496" y1="23.8661" x2="178.158" y2="41.2541" gradientUnits="userSpaceOnUse">
<stop stop-color="#6B38FC"/>
<stop offset="1" stop-color="#9F7EFD"/>
</linearGradient>
<linearGradient id="paint3_linear_137_259" x1="19.7495" y1="165.063" x2="26.0055" y2="179.799" gradientUnits="userSpaceOnUse">
<stop stop-color="#6B38FC"/>
<stop offset="1" stop-color="#9F7EFD"/>
</linearGradient>
<linearGradient id="paint4_linear_137_259" x1="169.432" y1="86.4751" x2="156.766" y2="83.5508" gradientUnits="userSpaceOnUse">
<stop stop-color="#6B38FC"/>
<stop offset="1" stop-color="#9F7EFD"/>
</linearGradient>
<linearGradient id="paint5_linear_137_259" x1="154.382" y1="103.956" x2="220.425" y2="295.168" gradientUnits="userSpaceOnUse">
<stop stop-color="white" stop-opacity="0.596"/>
<stop offset="1" stop-color="#F7F7F7" stop-opacity="0.204"/>
</linearGradient>
</defs>
</svg>
